<?xml version="1.0" standalone="no"?><!DOCTYPE svg PUBLIC "-//W3C//DTD SVG 1.1//EN" "http://www.w3.org/Graphics/SVG/1.1/DTD/svg11.dtd"><svg t="1664110947502" class="icon" viewBox="0 0 1024 1024" version="1.1" xmlns="http://www.w3.org/2000/svg" p-id="1044" xmlns:xlink="http://www.w3.org/1999/xlink" width="128" height="128"><path d="M0 777.828571V286.857143l404.571429-117.028572 619.428571 165.942858v490.971428L619.314286 943.771429z" fill="#ffffff" p-id="1045"></path><path d="M618.857143 475.885714v418.057143L48 740.914286V322.857143z" fill="#FFF3E0" p-id="1046"></path><path d="M618.857143 475.885714l357.142857-103.2v418.057143l-357.142857 103.2z" fill="#FFE0B2" p-id="1047"></path><path d="M618.857143 834.742857v59.2L48 740.914286v-59.085715z" fill="#593E35" p-id="1048"></path><path d="M618.857143 834.742857l357.142857-103.2v59.2l-357.142857 103.2z" fill="#4D352E" p-id="1049"></path><path d="M618.857143 475.885714v31.657143L48 354.514286v-31.657143z" fill="#593E35" p-id="1050"></path><path d="M618.857143 475.885714l357.142857-103.2v31.542857l-357.142857 103.314286zM618.857143 670.857143l357.142857-103.2v31.657143l-357.142857 103.2z" fill="#4D352E" p-id="1051"></path><path d="M48 322.857143l357.142857-103.2 570.857143 153.028571-357.142857 103.2z" fill="#6D4C41" p-id="1052"></path><path d="M303.085714 700.685714c-34.057143-9.142857-54.4-44.228571-45.257143-78.4 1.828571-6.857143 8.8-10.857143 15.657143-9.028571 6.857143 1.828571 10.857143 8.8 9.028572 15.657143-5.485714 20.571429 6.628571 41.485714 27.2 47.085714s41.485714-6.628571 47.085714-27.2c1.828571-6.857143 8.8-10.857143 15.657143-9.028571 6.857143 1.828571 10.857143 8.8 9.028571 15.657142-9.142857 34.057143-44.228571 54.4-78.4 45.257143zM185.485714 496.8c-5.485714 20.571429 6.628571 41.485714 27.2 47.085714 20.571429 5.485714 41.485714-6.628571 47.085715-27.2s-6.628571-41.485714-27.2-47.085714c-20.457143-5.371429-41.6 6.628571-47.085715 27.2zM432.685714 563.085714c-5.485714 20.571429 6.628571 41.485714 27.2 47.085715 20.571429 5.485714 41.485714-6.628571 47.085715-27.2 5.485714-20.571429-6.628571-41.485714-27.2-47.085715-20.457143-5.371429-41.485714 6.742857-47.085715 27.2z" fill="#25467A" p-id="1053"></path><path d="M156.571429 555.314286l-49.485715-13.257143c-13.714286-3.657143-27.657143 4.457143-31.314285 18.057143-3.657143 13.714286 4.457143 27.657143 18.057142 31.314285l49.485715 13.257143c13.714286 3.657143 27.657143-4.457143 31.314285-18.057143 3.657143-13.6-4.457143-27.657143-18.057142-31.314285z m395.542857 106.057143l-49.485715-13.257143c-13.714286-3.657143-27.657143 4.457143-31.314285 18.057143-3.657143 13.714286 4.457143 27.657143 18.057143 31.314285l49.485714 13.257143c13.714286 3.657143 27.657143-4.457143 31.314286-18.057143 3.771429-13.6-4.342857-27.657143-18.057143-31.314285z" fill="#593E35" p-id="1054"></path></svg>